# xmcd
#
# Track frame offsets:
#	150
#	12103
#	24000
#	40449
#	55526
#	68156
#	83170
#	95970
#	114806
#	130348
#	145583
#	160664
#	175693
#	188907
#
# Disc length: 2692 seconds
#
# Revision: 0
# Processed by: cddbd v1.5.2PL0 Copyright (c) Steve Scherf et al.
# Submitted via: EasyCDDAExtractor 10.2.0.1
#
DISCID=a70a820e
DTITLE=Leôncio e Leonel - Raízes da música sertaneja
DYEAR=2000
DGENRE=Sertanejo
TTITLE0=Vai de roda
TTITLE1=Casinha de aço
TTITLE2=Boi fumaça
TTITLE3=Lagoa criminosa
TTITLE4=Bom de bico
TTITLE5=Bandeira branca
TTITLE6=Valentão
TTITLE7=A menina do bolo
TTITLE8=Peão disposto
TTITLE9=Roupa suja
TTITLE10=Pitoco
TTITLE11=Sabuco de milho
TTITLE12=A geada
TTITLE13=Voltando ao sertão
EXTD=
EXTT0=
EXTT1=
EXTT2=
EXTT3=
EXTT4=
EXTT5=
EXTT6=
EXTT7=
EXTT8=
EXTT9=
EXTT10=
EXTT11=
EXTT12=
EXTT13=
PLAYORDER=
